<svg width="21" height="21" viewBox="0 0 21 21" fill="none" xmlns="http://www.w3.org/2000/svg">
<path d="M10.6134 0.5C16.1364 0.5 20.6134 4.977 20.6134 10.5C20.6147 12.0526 20.2539 13.5841 19.5597 14.9728C18.8655 16.3615 17.857 17.5692 16.6144 18.5H18.6134C18.8786 18.5 19.133 18.6054 19.3205 18.7929C19.508 18.9804 19.6134 19.2348 19.6134 19.5C19.6134 19.7652 19.508 20.0196 19.3205 20.2071C19.133 20.3946 18.8786 20.5 18.6134 20.5H10.6134C5.0904 20.5 0.613403 16.023 0.613403 10.5C0.613403 4.977 5.0904 0.5 10.6134 0.5ZM10.6134 12.5C10.083 12.5 9.57426 12.7107 9.19919 13.0858C8.82412 13.4609 8.6134 13.9696 8.6134 14.5C8.6134 15.0304 8.82412 15.5391 9.19919 15.9142C9.57426 16.2893 10.083 16.5 10.6134 16.5C11.1438 16.5 11.6525 16.2893 12.0276 15.9142C12.4027 15.5391 12.6134 15.0304 12.6134 14.5C12.6134 13.9696 12.4027 13.4609 12.0276 13.0858C11.6525 12.7107 11.1438 12.5 10.6134 12.5ZM6.6134 8.5C6.08297 8.5 5.57426 8.71071 5.19919 9.08579C4.82412 9.46086 4.6134 9.96957 4.6134 10.5C4.6134 11.0304 4.82412 11.5391 5.19919 11.9142C5.57426 12.2893 6.08297 12.5 6.6134 12.5C7.14384 12.5 7.65254 12.2893 8.02762 11.9142C8.40269 11.5391 8.6134 11.0304 8.6134 10.5C8.6134 9.96957 8.40269 9.46086 8.02762 9.08579C7.65254 8.71071 7.14384 8.5 6.6134 8.5ZM14.6134 8.5C14.083 8.5 13.5743 8.71071 13.1992 9.08579C12.8241 9.46086 12.6134 9.96957 12.6134 10.5C12.6134 11.0304 12.8241 11.5391 13.1992 11.9142C13.5743 12.2893 14.083 12.5 14.6134 12.5C15.1438 12.5 15.6525 12.2893 16.0276 11.9142C16.4027 11.5391 16.6134 11.0304 16.6134 10.5C16.6134 9.96957 16.4027 9.46086 16.0276 9.08579C15.6525 8.71071 15.1438 8.5 14.6134 8.5ZM10.6134 4.5C10.083 4.5 9.57426 4.71071 9.19919 5.08579C8.82412 5.46086 8.6134 5.96957 8.6134 6.5C8.6134 7.03043 8.82412 7.53914 9.19919 7.91421C9.57426 8.28929 10.083 8.5 10.6134 8.5C11.1438 8.5 11.6525 8.28929 12.0276 7.91421C12.4027 7.53914 12.6134 7.03043 12.6134 6.5C12.6134 5.96957 12.4027 5.46086 12.0276 5.08579C11.6525 4.71071 11.1438 4.5 10.6134 4.5Z" fill="white"/>
</svg>
