<svg width="19" height="20" viewBox="0 0 19 20" fill="none" xmlns="http://www.w3.org/2000/svg">
<path d="M9.7086 1.03974C9.59992 0.941615 9.46162 0.887695 9.3186 0.887695C9.17559 0.887695 9.03728 0.941615 8.9286 1.03974L0.318604 8.82972V17.9877C0.318604 18.4916 0.508246 18.9749 0.845811 19.3312C1.18338 19.6875 1.64121 19.8877 2.1186 19.8877H6.9186C7.07773 19.8877 7.23035 19.821 7.34287 19.7022C7.45539 19.5834 7.5186 19.4223 7.5186 19.2544V15.4544C7.5186 14.9505 7.70825 14.4672 8.04581 14.1109C8.38338 13.7546 8.84121 13.5544 9.3186 13.5544C9.79599 13.5544 10.2538 13.7546 10.5914 14.1109C10.929 14.4672 11.1186 14.9505 11.1186 15.4544V19.2544C11.1186 19.4223 11.1818 19.5834 11.2943 19.7022C11.4069 19.821 11.5595 19.8877 11.7186 19.8877H16.5186C16.996 19.8877 17.4538 19.6875 17.7914 19.3312C18.129 18.9749 18.3186 18.4916 18.3186 17.9877V8.82972L9.7086 1.03974Z" fill="white"/>
</svg>
