<svg width="25" height="25" viewBox="0 0 25 25" fill="none" xmlns="http://www.w3.org/2000/svg">
<path d="M22.2531 20.1874C20.9678 17.9315 18.9607 16.1737 16.555 15.1971C17.7513 14.2998 18.635 13.0489 19.0809 11.6215C19.5268 10.1941 19.5123 8.66262 19.0394 7.24395C18.5665 5.82527 17.6592 4.59135 16.4461 3.71697C15.2329 2.84259 13.7754 2.37207 12.28 2.37207C10.7846 2.37207 9.32709 2.84259 8.11395 3.71697C6.90081 4.59135 5.99353 5.82527 5.52064 7.24395C5.04775 8.66262 5.03322 10.1941 5.4791 11.6215C5.92498 13.0489 6.80868 14.2998 8.00501 15.1971C5.59931 16.1737 3.59224 17.9315 2.30688 20.1874C2.22724 20.3154 2.17416 20.4582 2.15079 20.6072C2.12743 20.7562 2.13426 20.9084 2.17087 21.0547C2.20749 21.201 2.27315 21.3384 2.36395 21.4588C2.45475 21.5792 2.56883 21.6802 2.69941 21.7556C2.82999 21.8311 2.97441 21.8795 3.12408 21.898C3.27375 21.9165 3.42562 21.9047 3.57065 21.8634C3.71568 21.822 3.85092 21.752 3.96833 21.6573C4.08573 21.5626 4.18291 21.4453 4.25407 21.3124C5.95282 18.3761 8.95282 16.6249 12.28 16.6249C15.6072 16.6249 18.6072 18.3771 20.3059 21.3124C20.4602 21.5604 20.7048 21.7387 20.9881 21.8096C21.2714 21.8805 21.5712 21.8385 21.8241 21.6924C22.0769 21.5463 22.2631 21.3076 22.3432 21.0267C22.4232 20.7458 22.3909 20.4449 22.2531 20.1874ZM7.40501 9.49988C7.40501 8.5357 7.69092 7.59317 8.2266 6.79148C8.76227 5.98979 9.52364 5.36495 10.4144 4.99597C11.3052 4.62699 12.2854 4.53045 13.2311 4.71855C14.1767 4.90666 15.0454 5.37096 15.7272 6.05274C16.4089 6.73452 16.8732 7.60316 17.0613 8.54882C17.2494 9.49447 17.1529 10.4747 16.7839 11.3655C16.4149 12.2563 15.7901 13.0176 14.9884 13.5533C14.1867 14.089 13.2442 14.3749 12.28 14.3749C10.9875 14.3734 9.74843 13.8593 8.83451 12.9454C7.92059 12.0315 7.4065 10.7924 7.40501 9.49988Z" fill="white"/>
</svg>
