<svg width="25" height="24" viewBox="0 0 25 24" fill="none" xmlns="http://www.w3.org/2000/svg">
<path fill-rule="evenodd" clip-rule="evenodd" d="M14.9547 19.003L14.9607 17C14.9607 16.7341 15.0663 16.4791 15.2543 16.2911C15.4423 16.1031 15.6973 15.9975 15.9632 15.9975C16.229 15.9975 16.484 16.1031 16.672 16.2911C16.86 16.4791 16.9657 16.7341 16.9657 17V18.977C16.9657 19.458 16.9657 19.699 17.1197 19.847C17.2747 19.994 17.5097 19.984 17.9827 19.964C19.8457 19.885 20.9907 19.634 21.7967 18.828C22.6067 18.022 22.8577 16.877 22.9367 15.011C22.9517 14.641 22.9597 14.455 22.8907 14.332C22.8207 14.209 22.5457 14.055 21.9937 13.746C21.6827 13.5727 21.4237 13.3194 21.2434 13.0125C21.0631 12.7055 20.9681 12.356 20.9681 12C20.9681 11.644 21.0631 11.2945 21.2434 10.9875C21.4237 10.6806 21.6827 10.4273 21.9937 10.254C22.5457 9.946 22.8217 9.791 22.8907 9.668C22.9597 9.545 22.9517 9.36 22.9357 8.989C22.8577 7.123 22.6057 5.979 21.7967 5.172C20.9197 4.296 19.6417 4.075 17.4747 4.019C17.4083 4.01726 17.3423 4.02884 17.2805 4.05303C17.2187 4.07723 17.1623 4.11357 17.1148 4.15989C17.0673 4.20622 17.0295 4.26159 17.0037 4.32275C16.9779 4.38392 16.9646 4.44962 16.9647 4.516V7C16.9647 7.26588 16.859 7.52087 16.671 7.70887C16.483 7.89688 16.228 8.0025 15.9622 8.0025C15.6963 8.0025 15.4413 7.89688 15.2533 7.70887C15.0653 7.52087 14.9597 7.26588 14.9597 7L14.9527 4.499C14.9524 4.36657 14.8996 4.23964 14.8059 4.14609C14.7121 4.05254 14.5851 4 14.4527 4H10.9407C7.16067 4 5.27067 4 4.09567 5.172C3.28567 5.978 3.03467 7.123 2.95567 8.989C2.94067 9.359 2.93267 9.545 3.00167 9.668C3.07167 9.791 3.34667 9.946 3.89867 10.254C4.2096 10.4273 4.4686 10.6806 4.64891 10.9875C4.82921 11.2945 4.92428 11.644 4.92428 12C4.92428 12.356 4.82921 12.7055 4.64891 13.0125C4.4686 13.3194 4.2096 13.5727 3.89867 13.746C3.34667 14.055 3.07067 14.209 3.00167 14.332C2.93267 14.455 2.94067 14.64 2.95667 15.01C3.03467 16.877 3.28667 18.022 4.09567 18.828C5.27067 20 7.16067 20 10.9417 20H13.9517C14.4237 20 14.6587 20 14.8057 19.854C14.9527 19.708 14.9537 19.474 14.9547 19.003ZM16.9647 13V11C16.9647 10.7341 16.859 10.4791 16.671 10.2911C16.483 10.1031 16.228 9.9975 15.9622 9.9975C15.6963 9.9975 15.4413 10.1031 15.2533 10.2911C15.0653 10.4791 14.9597 10.7341 14.9597 11V13C14.9597 13.266 15.0653 13.5211 15.2534 13.7092C15.4415 13.8973 15.6967 14.003 15.9627 14.003C16.2287 14.003 16.4838 13.8973 16.6719 13.7092C16.86 13.5211 16.9647 13.266 16.9647 13Z" fill="white"/>
</svg>
